<?xml version="1.0" encoding="UTF-8"?>
<svg xmlns="http://www.w3.org/2000/svg" xmlns:xlink="http://www.w3.org/1999/xlink" width="24px" height="24px" viewBox="0 0 24 24" version="1.1">
<defs>
<filter id="alpha" filterUnits="objectBoundingBox" x="0%" y="0%" width="100%" height="100%">
  <feColorMatrix type="matrix" in="SourceGraphic" values="0 0 0 0 1 0 0 0 0 1 0 0 0 0 1 0 0 0 1 0"/>
</filter>
<mask id="mask0">
  <g filter="url(#alpha)">
<rect x="0" y="0" width="24" height="24" style="fill:rgb(0%,0%,0%);fill-opacity:0.427451;stroke:none;"/>
  </g>
</mask>
<clipPath id="clip1">
  <rect x="0" y="0" width="24" height="24"/>
</clipPath>
<g id="surface5" clip-path="url(#clip1)">
<path style=" stroke:none;fill-rule:evenodd;fill:rgb(21.568628%,23.529412%,24.705882%);fill-opacity:1;" d="M 13.699219 4.722656 C 13.8125 4.761719 13.929688 4.796875 14.050781 4.828125 C 13.746094 4.785156 13.441406 4.730469 13.136719 4.664062 C 12.488281 4.574219 11.839844 4.5625 11.191406 4.628906 C 11.152344 4.625 11.113281 4.621094 11.074219 4.617188 C 11.125 4.613281 11.164062 4.59375 11.191406 4.558594 C 11.875 4.511719 12.554688 4.53125 13.230469 4.617188 C 13.394531 4.636719 13.550781 4.671875 13.699219 4.722656 Z M 13.699219 4.722656 "/>
</g>
<mask id="mask1">
  <g filter="url(#alpha)">
<rect x="0" y="0" width="24" height="24" style="fill:rgb(0%,0%,0%);fill-opacity:0.85098;stroke:none;"/>
  </g>
</mask>
<clipPath id="clip2">
  <rect x="0" y="0" width="24" height="24"/>
</clipPath>
<g id="surface8" clip-path="url(#clip2)">
<path style=" stroke:none;fill-rule:evenodd;fill:rgb(18.039216%,19.607843%,20.784314%);fill-opacity:1;" d="M 10.722656 4.628906 C 10.8125 4.636719 10.90625 4.640625 11.003906 4.640625 C 10.609375 4.703125 10.21875 4.773438 9.832031 4.851562 C 9.984375 4.8125 10.132812 4.769531 10.277344 4.722656 C 10.417969 4.671875 10.566406 4.640625 10.722656 4.628906 Z M 10.722656 4.628906 "/>
</g>
<mask id="mask2">
  <g filter="url(#alpha)">
<rect x="0" y="0" width="24" height="24" style="fill:rgb(0%,0%,0%);fill-opacity:0.792157;stroke:none;"/>
  </g>
</mask>
<clipPath id="clip3">
  <rect x="0" y="0" width="24" height="24"/>
</clipPath>
<g id="surface11" clip-path="url(#clip3)">
<path style=" stroke:none;fill-rule:evenodd;fill:rgb(15.686275%,18.039216%,19.215687%);fill-opacity:1;" d="M 14.308594 4.886719 C 14.378906 4.886719 14.441406 4.902344 14.496094 4.933594 C 14.546875 4.96875 14.601562 4.996094 14.660156 5.015625 C 14.492188 4.988281 14.328125 4.941406 14.167969 4.875 C 14.214844 4.863281 14.261719 4.867188 14.308594 4.886719 Z M 14.308594 4.886719 "/>
</g>
<mask id="mask3">
  <g filter="url(#alpha)">
<rect x="0" y="0" width="24" height="24" style="fill:rgb(0%,0%,0%);fill-opacity:0.596078;stroke:none;"/>
  </g>
</mask>
<clipPath id="clip4">
  <rect x="0" y="0" width="24" height="24"/>
</clipPath>
<g id="surface14" clip-path="url(#clip4)">
<path style=" stroke:none;fill-rule:evenodd;fill:rgb(16.862746%,18.82353%,20.392157%);fill-opacity:1;" d="M 14.777344 5.027344 C 15.972656 5.472656 16.996094 6.167969 17.847656 7.113281 C 17.832031 7.125 17.820312 7.140625 17.8125 7.160156 C 16.945312 6.199219 15.902344 5.492188 14.683594 5.039062 C 14.714844 5.027344 14.746094 5.023438 14.777344 5.027344 Z M 14.777344 5.027344 "/>
</g>
<mask id="mask4">
  <g filter="url(#alpha)">
<rect x="0" y="0" width="24" height="24" style="fill:rgb(0%,0%,0%);fill-opacity:0.317647;stroke:none;"/>
  </g>
</mask>
<clipPath id="clip5">
  <rect x="0" y="0" width="24" height="24"/>
</clipPath>
<g id="surface17" clip-path="url(#clip5)">
<path style=" stroke:none;fill-rule:evenodd;fill:rgb(19.607843%,21.568628%,22.745098%);fill-opacity:1;" d="M 9.761719 4.839844 C 9.773438 4.855469 9.789062 4.867188 9.808594 4.875 C 9.457031 4.980469 9.113281 5.105469 8.777344 5.25 C 7.074219 6.007812 5.828125 7.230469 5.039062 8.917969 C 5.042969 8.875 5.039062 8.835938 5.027344 8.800781 C 5.230469 8.351562 5.476562 7.929688 5.765625 7.535156 C 6.8125 6.214844 8.144531 5.316406 9.761719 4.839844 Z M 9.761719 4.839844 "/>
</g>
<mask id="mask5">
  <g filter="url(#alpha)">
<rect x="0" y="0" width="24" height="24" style="fill:rgb(0%,0%,0%);fill-opacity:0.819608;stroke:none;"/>
  </g>
</mask>
<clipPath id="clip6">
  <rect x="0" y="0" width="24" height="24"/>
</clipPath>
<g id="surface20" clip-path="url(#clip6)">
<path style=" stroke:none;fill-rule:evenodd;fill:rgb(18.431373%,20%,21.568628%);fill-opacity:1;" d="M 17.964844 7.253906 C 18.472656 7.84375 18.855469 8.507812 19.113281 9.246094 C 19.117188 9.277344 19.113281 9.308594 19.101562 9.339844 C 19.039062 9.183594 18.976562 9.027344 18.914062 8.871094 C 18.621094 8.265625 18.269531 7.703125 17.859375 7.183594 C 17.886719 7.222656 17.921875 7.246094 17.964844 7.253906 Z M 17.964844 7.253906 "/>
</g>
<mask id="mask6">
  <g filter="url(#alpha)">
<rect x="0" y="0" width="24" height="24" style="fill:rgb(0%,0%,0%);fill-opacity:0.2;stroke:none;"/>
  </g>
</mask>
<clipPath id="clip7">
  <rect x="0" y="0" width="24" height="24"/>
</clipPath>
<g id="surface23" clip-path="url(#clip7)">
<path style=" stroke:none;fill-rule:evenodd;fill:rgb(14.901961%,16.862746%,18.431373%);fill-opacity:1;" d="M 15.832031 10.347656 C 15.722656 10.097656 15.535156 10.015625 15.269531 10.101562 C 14.84375 10.257812 14.414062 10.40625 13.980469 10.546875 C 13.492188 10.675781 13.039062 10.605469 12.621094 10.335938 C 12.25 10 11.875 9.664062 11.496094 9.328125 C 11.351562 9.238281 11.203125 9.230469 11.050781 9.304688 C 10.984375 9.371094 10.914062 9.4375 10.839844 9.503906 C 9.90625 10.621094 8.972656 11.738281 8.039062 12.855469 C 7.945312 13.097656 8.011719 13.277344 8.238281 13.394531 C 8.238281 13.421875 8.253906 13.441406 8.285156 13.453125 C 8.226562 13.460938 8.171875 13.445312 8.121094 13.40625 C 7.921875 13.226562 7.886719 13.019531 8.015625 12.785156 C 9.003906 11.601562 10 10.425781 11.003906 9.257812 C 11.179688 9.171875 11.351562 9.179688 11.519531 9.28125 C 11.886719 9.59375 12.246094 9.914062 12.597656 10.242188 C 12.96875 10.515625 13.382812 10.609375 13.839844 10.523438 C 14.316406 10.382812 14.785156 10.226562 15.246094 10.054688 C 15.5625 9.953125 15.78125 10.054688 15.902344 10.359375 C 15.898438 10.371094 15.894531 10.382812 15.890625 10.394531 C 15.878906 10.363281 15.859375 10.347656 15.832031 10.347656 Z M 15.832031 10.347656 "/>
</g>
<mask id="mask7">
  <g filter="url(#alpha)">
<rect x="0" y="0" width="24" height="24" style="fill:rgb(0%,0%,0%);fill-opacity:0.847059;stroke:none;"/>
  </g>
</mask>
<clipPath id="clip8">
  <rect x="0" y="0" width="24" height="24"/>
</clipPath>
<g id="surface26" clip-path="url(#clip8)">
<path style=" stroke:none;fill-rule:evenodd;fill:rgb(20.392157%,22.352941%,23.529412%);fill-opacity:1;" d="M 4.464844 10.980469 C 4.492188 10.652344 4.539062 10.324219 4.605469 9.996094 C 4.632812 9.996094 4.652344 9.980469 4.664062 9.949219 C 4.597656 10.335938 4.542969 10.726562 4.5 11.121094 C 4.496094 11.070312 4.484375 11.023438 4.464844 10.980469 Z M 4.464844 10.980469 "/>
</g>
<mask id="mask8">
  <g filter="url(#alpha)">
<rect x="0" y="0" width="24" height="24" style="fill:rgb(0%,0%,0%);fill-opacity:0.854902;stroke:none;"/>
  </g>
</mask>
<clipPath id="clip9">
  <rect x="0" y="0" width="24" height="24"/>
</clipPath>
<g id="surface29" clip-path="url(#clip9)">
<path style=" stroke:none;fill-rule:evenodd;fill:rgb(21.176471%,23.137255%,24.313726%);fill-opacity:1;" d="M 14.824219 11.824219 C 14.835938 11.78125 14.855469 11.742188 14.882812 11.707031 C 15.207031 11.363281 15.515625 11.011719 15.808594 10.652344 C 15.851562 10.636719 15.878906 10.605469 15.890625 10.558594 C 15.886719 10.632812 15.863281 10.703125 15.820312 10.769531 C 15.484375 11.160156 15.140625 11.542969 14.789062 11.917969 C 14.78125 11.882812 14.792969 11.851562 14.824219 11.824219 Z M 14.824219 11.824219 "/>
</g>
<mask id="mask9">
  <g filter="url(#alpha)">
<rect x="0" y="0" width="24" height="24" style="fill:rgb(0%,0%,0%);fill-opacity:0.886275;stroke:none;"/>
  </g>
</mask>
<clipPath id="clip10">
  <rect x="0" y="0" width="24" height="24"/>
</clipPath>
<g id="surface32" clip-path="url(#clip10)">
<path style=" stroke:none;fill-rule:evenodd;fill:rgb(19.215687%,21.568628%,22.745098%);fill-opacity:1;" d="M 4.558594 12.691406 C 4.53125 12.460938 4.5 12.234375 4.464844 12.011719 C 4.488281 12.011719 4.503906 12 4.511719 11.976562 C 4.484375 11.808594 4.480469 11.640625 4.5 11.472656 C 4.515625 11.890625 4.558594 12.304688 4.628906 12.714844 C 4.625 12.738281 4.621094 12.761719 4.617188 12.785156 C 4.613281 12.738281 4.59375 12.707031 4.558594 12.691406 Z M 4.558594 12.691406 "/>
</g>
<mask id="mask10">
  <g filter="url(#alpha)">
<rect x="0" y="0" width="24" height="24" style="fill:rgb(0%,0%,0%);fill-opacity:0.25098;stroke:none;"/>
  </g>
</mask>
<clipPath id="clip11">
  <rect x="0" y="0" width="24" height="24"/>
</clipPath>
<g id="surface35" clip-path="url(#clip11)">
<path style=" stroke:none;fill-rule:evenodd;fill:rgb(21.568628%,23.921569%,25.098041%);fill-opacity:1;" d="M 14.683594 11.941406 C 14.679688 11.957031 14.683594 11.972656 14.695312 11.988281 C 14.710938 11.960938 14.722656 11.960938 14.730469 11.988281 C 14.324219 12.453125 13.914062 12.914062 13.5 13.371094 C 13.492188 13.351562 13.480469 13.335938 13.464844 13.324219 C 13.875 12.859375 14.28125 12.398438 14.683594 11.941406 Z M 14.683594 11.941406 "/>
</g>
<mask id="mask11">
  <g filter="url(#alpha)">
<rect x="0" y="0" width="24" height="24" style="fill:rgb(0%,0%,0%);fill-opacity:0.133333;stroke:none;"/>
  </g>
</mask>
<clipPath id="clip12">
  <rect x="0" y="0" width="24" height="24"/>
</clipPath>
<g id="surface38" clip-path="url(#clip12)">
<path style=" stroke:none;fill-rule:evenodd;fill:rgb(18.82353%,21.176471%,22.745098%);fill-opacity:1;" d="M 10.886719 12.878906 C 11.027344 12.921875 11.167969 12.972656 11.308594 13.03125 C 11.683594 13.296875 12.042969 13.578125 12.386719 13.875 C 12.460938 13.9375 12.546875 13.972656 12.644531 13.980469 C 12.632812 13.996094 12.617188 14.007812 12.597656 14.015625 C 12.679688 14.03125 12.683594 14.042969 12.609375 14.050781 C 12.539062 14.035156 12.472656 14.007812 12.410156 13.96875 C 12.050781 13.6875 11.691406 13.40625 11.332031 13.125 C 11.152344 13.03125 10.964844 12.960938 10.769531 12.914062 C 10.8125 12.910156 10.851562 12.898438 10.886719 12.878906 Z M 10.886719 12.878906 "/>
</g>
<mask id="mask12">
  <g filter="url(#alpha)">
<rect x="0" y="0" width="24" height="24" style="fill:rgb(0%,0%,0%);fill-opacity:0.988235;stroke:none;"/>
  </g>
</mask>
<clipPath id="clip13">
  <rect x="0" y="0" width="24" height="24"/>
</clipPath>
<g id="surface41" clip-path="url(#clip13)">
<path style=" stroke:none;fill-rule:evenodd;fill:rgb(19.607843%,21.960784%,23.137255%);fill-opacity:1;" d="M 10.160156 12.878906 C 10.179688 12.898438 10.203125 12.910156 10.230469 12.914062 C 9.675781 13.117188 9.113281 13.296875 8.542969 13.453125 C 8.597656 13.441406 8.636719 13.414062 8.660156 13.371094 C 9.164062 13.214844 9.664062 13.050781 10.160156 12.878906 Z M 10.160156 12.878906 "/>
</g>
<mask id="mask13">
  <g filter="url(#alpha)">
<rect x="0" y="0" width="24" height="24" style="fill:rgb(0%,0%,0%);fill-opacity:0.145098;stroke:none;"/>
  </g>
</mask>
<clipPath id="clip14">
  <rect x="0" y="0" width="24" height="24"/>
</clipPath>
<g id="surface44" clip-path="url(#clip14)">
<path style=" stroke:none;fill-rule:evenodd;fill:rgb(21.568628%,23.529412%,24.705882%);fill-opacity:1;" d="M 19.464844 10.746094 C 19.5 10.859375 19.519531 10.976562 19.523438 11.097656 C 19.597656 12.289062 19.367188 13.414062 18.832031 14.472656 C 18.808594 14.472656 18.792969 14.460938 18.785156 14.4375 C 19.375 13.234375 19.589844 11.964844 19.429688 10.628906 C 19.433594 10.671875 19.445312 10.710938 19.464844 10.746094 Z M 19.464844 10.746094 "/>
</g>
<mask id="mask14">
  <g filter="url(#alpha)">
<rect x="0" y="0" width="24" height="24" style="fill:rgb(0%,0%,0%);fill-opacity:0.52549;stroke:none;"/>
  </g>
</mask>
<clipPath id="clip15">
  <rect x="0" y="0" width="24" height="24"/>
</clipPath>
<g id="surface47" clip-path="url(#clip15)">
<path style=" stroke:none;fill-rule:evenodd;fill:rgb(16.470589%,18.431373%,19.607843%);fill-opacity:1;" d="M 9.527344 18.386719 C 8.917969 18.707031 8.316406 19.039062 7.722656 19.382812 C 7.515625 19.46875 7.359375 19.417969 7.253906 19.230469 C 7.28125 18.601562 7.285156 17.96875 7.265625 17.332031 C 7.253906 17.261719 7.238281 17.191406 7.21875 17.121094 C 7.207031 17.089844 7.1875 17.074219 7.160156 17.074219 C 7.160156 17.039062 7.152344 17.007812 7.136719 16.980469 C 7.089844 16.921875 7.046875 16.859375 7.007812 16.792969 C 6.777344 16.570312 6.546875 16.351562 6.316406 16.136719 C 5.75 15.535156 5.300781 14.855469 4.96875 14.097656 C 4.925781 13.953125 4.875 13.8125 4.816406 13.675781 C 4.832031 13.632812 4.835938 13.585938 4.828125 13.535156 C 4.910156 13.71875 4.980469 13.90625 5.039062 14.097656 C 5.5 15.140625 6.171875 16.023438 7.054688 16.746094 C 7.183594 16.910156 7.261719 17.097656 7.289062 17.308594 C 7.296875 17.933594 7.304688 18.558594 7.3125 19.183594 C 7.390625 19.351562 7.519531 19.402344 7.699219 19.335938 C 8.292969 18.992188 8.894531 18.660156 9.503906 18.339844 C 9.523438 18.351562 9.53125 18.367188 9.527344 18.386719 Z M 9.527344 18.386719 "/>
</g>
<mask id="mask15">
  <g filter="url(#alpha)">
<rect x="0" y="0" width="24" height="24" style="fill:rgb(0%,0%,0%);fill-opacity:0.113725;stroke:none;"/>
  </g>
</mask>
<clipPath id="clip16">
  <rect x="0" y="0" width="24" height="24"/>
</clipPath>
<g id="surface50" clip-path="url(#clip16)">
<path style=" stroke:none;fill-rule:evenodd;fill:rgb(27.843139%,29.803923%,30.980393%);fill-opacity:1;" d="M 7.160156 17.074219 C 7.1875 17.074219 7.207031 17.089844 7.21875 17.121094 C 7.238281 17.191406 7.253906 17.261719 7.265625 17.332031 C 7.285156 17.96875 7.28125 18.601562 7.253906 19.230469 C 7.257812 18.628906 7.253906 18.027344 7.242188 17.425781 C 7.238281 17.300781 7.210938 17.183594 7.160156 17.074219 Z M 7.160156 17.074219 "/>
</g>
<mask id="mask16">
  <g filter="url(#alpha)">
<rect x="0" y="0" width="24" height="24" style="fill:rgb(0%,0%,0%);fill-opacity:0.682353;stroke:none;"/>
  </g>
</mask>
<clipPath id="clip17">
  <rect x="0" y="0" width="24" height="24"/>
</clipPath>
<g id="surface53" clip-path="url(#clip17)">
<path style=" stroke:none;fill-rule:evenodd;fill:rgb(16.078432%,18.039216%,19.215687%);fill-opacity:1;" d="M 18.761719 14.589844 C 18.28125 15.496094 17.632812 16.265625 16.816406 16.898438 C 15.296875 18.007812 13.585938 18.542969 11.683594 18.503906 C 11.679688 18.488281 11.671875 18.476562 11.660156 18.46875 C 11.402344 18.460938 11.144531 18.4375 10.886719 18.398438 C 12.011719 18.515625 13.121094 18.429688 14.214844 18.140625 C 16.21875 17.550781 17.730469 16.34375 18.75 14.519531 C 18.761719 14.542969 18.765625 14.566406 18.761719 14.589844 Z M 18.761719 14.589844 "/>
</g>
<mask id="mask17">
  <g filter="url(#alpha)">
<rect x="0" y="0" width="24" height="24" style="fill:rgb(0%,0%,0%);fill-opacity:0.447059;stroke:none;"/>
  </g>
</mask>
<clipPath id="clip18">
  <rect x="0" y="0" width="24" height="24"/>
</clipPath>
<g id="surface56" clip-path="url(#clip18)">
<path style=" stroke:none;fill-rule:evenodd;fill:rgb(13.725491%,15.686275%,17.254902%);fill-opacity:1;" d="M 10.605469 18.386719 C 10.265625 18.285156 9.921875 18.269531 9.574219 18.339844 C 9.5625 18.339844 9.554688 18.335938 9.550781 18.328125 C 9.679688 18.253906 9.820312 18.21875 9.972656 18.222656 C 10.253906 18.261719 10.535156 18.3125 10.816406 18.375 C 10.742188 18.378906 10.671875 18.382812 10.605469 18.386719 Z M 10.605469 18.386719 "/>
</g>
</defs>
<g id="surface1">
<use xlink:href="#surface5" mask="url(#mask0)"/>
<path style=" stroke:none;fill-rule:evenodd;fill:rgb(28.627452%,30.588236%,31.764707%);fill-opacity:1;" d="M 11.191406 4.558594 C 11.164062 4.59375 11.125 4.613281 11.074219 4.617188 C 11.113281 4.621094 11.152344 4.625 11.191406 4.628906 C 11.839844 4.5625 12.488281 4.574219 13.136719 4.664062 C 13.441406 4.730469 13.746094 4.785156 14.050781 4.828125 C 13.929688 4.796875 13.8125 4.761719 13.699219 4.722656 C 13.847656 4.738281 13.996094 4.765625 14.144531 4.804688 C 14.210938 4.816406 14.265625 4.84375 14.308594 4.886719 C 14.261719 4.867188 14.214844 4.863281 14.167969 4.875 C 14.328125 4.941406 14.492188 4.988281 14.660156 5.015625 C 14.601562 4.996094 14.546875 4.96875 14.496094 4.933594 C 14.597656 4.945312 14.691406 4.976562 14.777344 5.027344 C 14.746094 5.023438 14.714844 5.027344 14.683594 5.039062 C 15.902344 5.492188 16.945312 6.199219 17.8125 7.160156 C 17.820312 7.140625 17.832031 7.125 17.847656 7.113281 C 17.886719 7.160156 17.925781 7.207031 17.964844 7.253906 C 17.921875 7.246094 17.886719 7.222656 17.859375 7.183594 C 18.269531 7.703125 18.621094 8.265625 18.914062 8.871094 C 18.976562 9.027344 19.039062 9.183594 19.101562 9.339844 C 19.113281 9.308594 19.117188 9.277344 19.113281 9.246094 C 19.316406 9.722656 19.433594 10.222656 19.464844 10.746094 C 19.445312 10.710938 19.433594 10.671875 19.429688 10.628906 C 19.589844 11.964844 19.375 13.234375 18.785156 14.4375 C 18.792969 14.460938 18.808594 14.472656 18.832031 14.472656 C 18.828125 14.523438 18.804688 14.5625 18.761719 14.589844 C 18.765625 14.566406 18.761719 14.542969 18.75 14.519531 C 17.730469 16.34375 16.21875 17.550781 14.214844 18.140625 C 13.121094 18.429688 12.011719 18.515625 10.886719 18.398438 C 11.144531 18.4375 11.402344 18.460938 11.660156 18.46875 C 11.671875 18.476562 11.679688 18.488281 11.683594 18.503906 C 11.320312 18.484375 10.960938 18.445312 10.605469 18.386719 C 10.671875 18.382812 10.742188 18.378906 10.816406 18.375 C 10.535156 18.3125 10.253906 18.261719 9.972656 18.222656 C 9.820312 18.21875 9.679688 18.253906 9.550781 18.328125 C 9.554688 18.335938 9.5625 18.339844 9.574219 18.339844 C 9.566406 18.363281 9.550781 18.378906 9.527344 18.386719 C 9.53125 18.367188 9.523438 18.351562 9.503906 18.339844 C 8.894531 18.660156 8.292969 18.992188 7.699219 19.335938 C 7.519531 19.402344 7.390625 19.351562 7.3125 19.183594 C 7.304688 18.558594 7.296875 17.933594 7.289062 17.308594 C 7.261719 17.097656 7.183594 16.910156 7.054688 16.746094 C 6.171875 16.023438 5.5 15.140625 5.039062 14.097656 C 4.980469 13.90625 4.910156 13.71875 4.828125 13.535156 C 4.835938 13.585938 4.832031 13.632812 4.816406 13.675781 C 4.707031 13.355469 4.621094 13.027344 4.558594 12.691406 C 4.59375 12.707031 4.613281 12.738281 4.617188 12.785156 C 4.621094 12.761719 4.625 12.738281 4.628906 12.714844 C 4.558594 12.304688 4.515625 11.890625 4.5 11.472656 C 4.480469 11.640625 4.484375 11.808594 4.511719 11.976562 C 4.503906 12 4.488281 12.011719 4.464844 12.011719 C 4.4375 11.664062 4.4375 11.320312 4.464844 10.980469 C 4.484375 11.023438 4.496094 11.070312 4.5 11.121094 C 4.542969 10.726562 4.597656 10.335938 4.664062 9.949219 C 4.652344 9.980469 4.632812 9.996094 4.605469 9.996094 C 4.707031 9.582031 4.847656 9.183594 5.027344 8.800781 C 5.039062 8.835938 5.042969 8.875 5.039062 8.917969 C 5.828125 7.230469 7.074219 6.007812 8.777344 5.25 C 9.113281 5.105469 9.457031 4.980469 9.808594 4.875 C 9.789062 4.867188 9.773438 4.855469 9.761719 4.839844 C 9.925781 4.777344 10.097656 4.738281 10.277344 4.722656 C 10.132812 4.769531 9.984375 4.8125 9.832031 4.851562 C 10.21875 4.773438 10.609375 4.703125 11.003906 4.640625 C 10.90625 4.640625 10.8125 4.636719 10.722656 4.628906 C 10.878906 4.601562 11.035156 4.578125 11.191406 4.558594 Z M 15.832031 10.347656 C 15.867188 10.453125 15.859375 10.554688 15.808594 10.652344 C 15.515625 11.011719 15.207031 11.363281 14.882812 11.707031 C 14.855469 11.742188 14.835938 11.78125 14.824219 11.824219 C 14.761719 11.847656 14.714844 11.886719 14.683594 11.941406 C 14.28125 12.398438 13.875 12.859375 13.464844 13.324219 C 13.277344 13.515625 13.097656 13.714844 12.925781 13.921875 C 12.835938 13.96875 12.742188 13.988281 12.644531 13.980469 C 12.546875 13.972656 12.460938 13.9375 12.386719 13.875 C 12.042969 13.578125 11.683594 13.296875 11.308594 13.03125 C 11.167969 12.972656 11.027344 12.921875 10.886719 12.878906 C 10.644531 12.816406 10.402344 12.816406 10.160156 12.878906 C 9.664062 13.050781 9.164062 13.214844 8.660156 13.371094 C 8.523438 13.417969 8.382812 13.425781 8.238281 13.394531 C 8.011719 13.277344 7.945312 13.097656 8.039062 12.855469 C 8.972656 11.738281 9.90625 10.621094 10.839844 9.503906 C 10.914062 9.4375 10.984375 9.371094 11.050781 9.304688 C 11.203125 9.230469 11.351562 9.238281 11.496094 9.328125 C 11.875 9.664062 12.25 10 12.621094 10.335938 C 13.039062 10.605469 13.492188 10.675781 13.980469 10.546875 C 14.414062 10.40625 14.84375 10.257812 15.269531 10.101562 C 15.535156 10.015625 15.722656 10.097656 15.832031 10.347656 Z M 15.832031 10.347656 "/>
<use xlink:href="#surface8" mask="url(#mask1)"/>
<use xlink:href="#surface11" mask="url(#mask2)"/>
<use xlink:href="#surface14" mask="url(#mask3)"/>
<use xlink:href="#surface17" mask="url(#mask4)"/>
<use xlink:href="#surface20" mask="url(#mask5)"/>
<use xlink:href="#surface23" mask="url(#mask6)"/>
<use xlink:href="#surface26" mask="url(#mask7)"/>
<use xlink:href="#surface29" mask="url(#mask8)"/>
<use xlink:href="#surface32" mask="url(#mask9)"/>
<use xlink:href="#surface35" mask="url(#mask10)"/>
<use xlink:href="#surface38" mask="url(#mask11)"/>
<use xlink:href="#surface41" mask="url(#mask12)"/>
<use xlink:href="#surface44" mask="url(#mask13)"/>
<use xlink:href="#surface47" mask="url(#mask14)"/>
<use xlink:href="#surface50" mask="url(#mask15)"/>
<use xlink:href="#surface53" mask="url(#mask16)"/>
<use xlink:href="#surface56" mask="url(#mask17)"/>
</g>
</svg>
